<?xml version="1.0" encoding="utf-8"?>
<svg version="1.0" width="230px" height="95.212px" viewBox="0 0 380 202" xmlns="http://www.w3.org/2000/svg">
  <g transform="matrix(1, 0, 0, 1, 89.112877, 4.343845)">
    <rect x="40.203" y="113.771" width="3.87" height="60.754" style="stroke: rgb(0, 0, 0);"/>
    <ellipse style="stroke: rgb(0, 0, 0);" cx="42.126" cy="176.292" rx="1.935" ry="4.644"/>
    <ellipse style="stroke: rgb(0, 0, 0);" cx="42.137" cy="112.997" rx="1.935" ry="4.644"/>
  </g>
  <g transform="matrix(0.1, 0, 0, -0.1, 88.953384, 205.395172)" fill="#000000" stroke="none">
    <path d="M 1500 1874 C 1367 1865 1239 1848 1158 1829 C 1077 1810 1067 1805 1028 1761 C 1004 1735 955 1671 918 1619 C 839 1508 829 1498 727 1436 C 684 1410 643 1378 635 1367 C 628 1355 601 1288 576 1219 C 551 1150 510 1042 486 980 L 494.176 205.276 C 494.176 205.276 553 200 1511 200 L 2728 200 L 2784 304 C 2843 414 2850 445 2823 486 C 2814 500 2797 571 2785 643 C 2772 716 2751 814 2736 862 C 2706 960 2687 982 2572 1049 L 2503 1089 L 2436 1260 C 2398 1354 2356 1445 2342 1462 C 2327 1479 2286 1507 2250 1523 C 2214 1539 2138 1587 2079 1630 C 1936 1736 1844 1794 1755 1837 C 1676 1874 1621 1882 1500 1874 Z M 1813 1001 C 1878 969 1940 905 1982 823 C 2030 732 2047 670 2065 515 C 2085 339 2085 284 2063 274 C 2017 253 1344 263 1322 284 C 1319 288 1321 362 1328 449 C 1353 779 1430 950 1582 1012 C 1643 1037 1750 1032 1813 1001 Z"/>
  </g>
  <g transform="matrix(1, 0, 0, 1, 80.257828, 5.427311)">
    <rect x="40.203" y="123.596" width="3.87" height="51.867" style="stroke: rgb(0, 0, 0);"/>
    <ellipse style="stroke: rgb(0, 0, 0);" cx="42.126" cy="175.971" rx="1.935" ry="3.965"/>
    <ellipse style="stroke: rgb(0, 0, 0);" cx="42.137" cy="122.935" rx="1.935" ry="3.965"/>
  </g>
  <g transform="matrix(1, 0, 0, 0.858547, 71.666374, 31.047182)" style="">
    <rect x="40.203" y="123.596" width="3.87" height="51.867" style="stroke: rgb(0, 0, 0);"/>
    <ellipse style="stroke: rgb(0, 0, 0);" cx="42.126" cy="175.971" rx="1.935" ry="3.965"/>
    <ellipse style="stroke: rgb(0, 0, 0);" cx="42.137" cy="122.935" rx="1.935" ry="3.965"/>
  </g>
  <g transform="matrix(1, 0, 0, 0.800167, 62.655506, 41.792564)" style="">
    <rect x="40.203" y="123.596" width="3.87" height="51.867" style="stroke: rgb(0, 0, 0);"/>
    <ellipse style="stroke: rgb(0, 0, 0);" cx="42.126" cy="175.971" rx="1.935" ry="3.965"/>
    <ellipse style="stroke: rgb(0, 0, 0);" cx="42.137" cy="122.935" rx="1.935" ry="3.965"/>
  </g>
  <g transform="matrix(1, 0, 0, 0.800167, 54.262409, 41.526638)" style="">
    <rect x="40.203" y="123.596" width="3.87" height="51.867" style="stroke: rgb(0, 0, 0);"/>
    <ellipse style="stroke: rgb(0, 0, 0);" cx="42.126" cy="175.971" rx="1.935" ry="3.965"/>
    <ellipse style="stroke: rgb(0, 0, 0);" cx="42.137" cy="122.935" rx="1.935" ry="3.965"/>
  </g>
  <g transform="matrix(1, 0, 0, 0.858547, 45.74382, 30.801569)" style="">
    <rect x="40.203" y="123.596" width="3.87" height="51.867" style="stroke: rgb(0, 0, 0);"/>
    <ellipse style="stroke: rgb(0, 0, 0);" cx="42.126" cy="175.971" rx="1.935" ry="3.965"/>
    <ellipse style="stroke: rgb(0, 0, 0);" cx="42.137" cy="122.935" rx="1.935" ry="3.965"/>
  </g>
  <g transform="matrix(-1, 0, 0, 1, 112.434074, 4.814952)" style="">
    <rect x="40.203" y="113.771" width="3.87" height="60.754" style="stroke: rgb(0, 0, 0);"/>
    <ellipse style="stroke: rgb(0, 0, 0);" cx="42.126" cy="176.292" rx="1.935" ry="4.644"/>
    <ellipse style="stroke: rgb(0, 0, 0);" cx="42.137" cy="112.997" rx="1.935" ry="4.644"/>
  </g>
  <g transform="matrix(-1, 0, 0, 1, 121.289078, 5.897951)" style="">
    <rect x="40.203" y="123.596" width="3.87" height="51.867" style="stroke: rgb(0, 0, 0);"/>
    <ellipse style="stroke: rgb(0, 0, 0);" cx="42.126" cy="175.971" rx="1.935" ry="3.965"/>
    <ellipse style="stroke: rgb(0, 0, 0);" cx="42.137" cy="122.935" rx="1.935" ry="3.965"/>
  </g>
  <g transform="matrix(-1, 0, 0, 1.100513, 103.722694, -13.134685)" style="">
    <rect x="40.203" y="113.771" width="3.87" height="60.754" style="stroke: rgb(0, 0, 0);"/>
    <ellipse style="stroke: rgb(0, 0, 0);" cx="42.126" cy="176.292" rx="1.935" ry="4.644"/>
    <ellipse style="stroke: rgb(0, 0, 0);" cx="42.137" cy="112.997" rx="1.935" ry="4.644"/>
  </g>
  <g transform="matrix(-1, 0, 0, 0.800167, 59.907356, 41.822182)" style="">
    <rect x="40.203" y="123.596" width="3.87" height="51.867" style="stroke: rgb(0, 0, 0);"/>
    <ellipse style="stroke: rgb(0, 0, 0);" cx="42.126" cy="175.971" rx="1.935" ry="3.965"/>
    <ellipse style="stroke: rgb(0, 0, 0);" cx="42.137" cy="122.935" rx="1.935" ry="3.965"/>
  </g>
  <g transform="matrix(-1, 0, 0, 0.858547, 68.425949, 31.09709)" style="">
    <rect x="40.203" y="123.596" width="3.87" height="51.867" style="stroke: rgb(0, 0, 0);"/>
    <ellipse style="stroke: rgb(0, 0, 0);" cx="42.126" cy="175.971" rx="1.935" ry="3.965"/>
    <ellipse style="stroke: rgb(0, 0, 0);" cx="42.137" cy="122.935" rx="1.935" ry="3.965"/>
  </g>
  <g transform="matrix(1, 0, 0, 1, 1.735699, 5.110496)" style="">
    <rect x="40.203" y="113.771" width="3.87" height="60.754" style="stroke: rgb(0, 0, 0);"/>
    <ellipse style="stroke: rgb(0, 0, 0);" cx="42.126" cy="176.292" rx="1.935" ry="4.644"/>
    <ellipse style="stroke: rgb(0, 0, 0);" cx="42.137" cy="112.997" rx="1.935" ry="4.644"/>
  </g>
  <g transform="matrix(1, 0, 0, 1, -7.119305, 6.193496)" style="">
    <rect x="40.203" y="123.596" width="3.87" height="51.867" style="stroke: rgb(0, 0, 0);"/>
    <ellipse style="stroke: rgb(0, 0, 0);" cx="42.126" cy="175.971" rx="1.935" ry="3.965"/>
    <ellipse style="stroke: rgb(0, 0, 0);" cx="42.137" cy="122.935" rx="1.935" ry="3.965"/>
  </g>
  <g transform="matrix(1, 0, 0, 1.100513, 10.447071, -12.839196)" style="">
    <rect x="40.203" y="113.771" width="3.87" height="60.754" style="stroke: rgb(0, 0, 0);"/>
    <ellipse style="stroke: rgb(0, 0, 0);" cx="42.126" cy="176.292" rx="1.935" ry="4.644"/>
    <ellipse style="stroke: rgb(0, 0, 0);" cx="42.137" cy="112.997" rx="1.935" ry="4.644"/>
  </g>
</svg>