<svg xmlns="http://www.w3.org/2000/svg" xmlns:bx="https://boxy-svg.com" version="1.0" preserveAspectRatio="xMinYMin" viewBox="-0.01 -0.05 75 40.03">
  <defs>
    <linearGradient id="gradient-1" bx:pinned="true">
      <stop offset="0" style="stop-color: rgb(255, 92, 0);"/>
      <stop offset="1" style="stop-color: rgb(212, 21, 0);"/>
    </linearGradient>
  </defs>
  <rect x="-0.008" y="-0.052" width="75" height="40.035" style="fill: rgb(26, 26, 26);"/>
  <g transform="matrix(1, 0, 0, 1, 5.400989, -10.671839)">
    <g transform="matrix(0.015, 0, 0, -0.015, 15.5805, 46.705853)" fill="#000000" stroke="none" style="">
      <path d="M 1500 1874 C 1367 1865 1239 1848 1158 1829 C 1077 1810 1067 1805 1028 1761 C 1004 1735 955 1671 918 1619 C 839 1508 829 1498 727 1436 C 684 1410 643 1378 635 1367 C 628 1355 601 1288 576 1219 C 551 1150 510 1042 486 980 L 494.176 205.276 C 494.176 205.276 553 200 1511 200 L 2728 200 L 2784 304 C 2843 414 2850 445 2823 486 C 2814 500 2797 571 2785 643 C 2772 716 2751 814 2736 862 C 2706 960 2687 982 2572 1049 L 2503 1089 L 2436 1260 C 2398 1354 2356 1445 2342 1462 C 2327 1479 2286 1507 2250 1523 C 2214 1539 2138 1587 2079 1630 C 1936 1736 1844 1794 1755 1837 C 1676 1874 1621 1882 1500 1874 Z M 1813 1001 C 1878 969 1940 905 1982 823 C 2030 732 2047 670 2065 515 C 2085 339 2085 284 2063 274 C 2017 253 1344 263 1322 284 C 1319 288 1321 362 1328 449 C 1353 779 1430 950 1582 1012 C 1643 1037 1750 1032 1813 1001 Z" style="stroke: rgb(255, 255, 255); fill: rgb(255, 255, 255);"/>
    </g>
    <rect style="stroke: rgb(255, 255, 255); fill: rgb(255, 255, 255);" x="20.185" y="33.333" width="1.138" height="9.821" rx="0.6" ry="0.6"/>
    <rect style="stroke: rgb(255, 255, 255); fill: rgb(255, 255, 255);" x="16.6" y="35.59" width="1.138" height="7.551" rx="0.6" ry="0.6"/>
    <rect style="stroke: rgb(255, 255, 255); fill: rgb(255, 255, 255);" x="13.104" y="37.851" width="1.138" height="5.281" rx="0.6" ry="0.6"/>
    <rect style="stroke: rgb(255, 255, 255); fill: rgb(255, 255, 255);" x="6.046" y="35.606" width="1.138" height="7.551" rx="0.6" ry="0.6"/>
    <rect style="stroke: rgb(255, 255, 255); fill: rgb(255, 255, 255);" x="9.566" y="37.844" width="1.138" height="5.281" rx="0.6" ry="0.6"/>
  </g>
</svg>